<svg xmlns="http://www.w3.org/2000/svg" viewBox="0 0 269 70"><defs><style>.cls-1{fill:#fff;}.cls-2{fill:#803a9d;}.cls-3{fill:#6d6e71;}.cls-4{fill:none;stroke:#803a9d;stroke-miterlimit:10;}</style></defs><g id="Layer_2" data-name="Layer 2"><g id="_-2_M_over" data-name="-2_M_over"><g id="s1_copy" data-name="s1 copy"><g id="Rectangle_13" data-name="Rectangle 13"><rect class="cls-1" y="10" width="269" height="60"/></g><g id="Rectangle_16" data-name="Rectangle 16"><rect class="cls-2" x="10" width="60" height="60"/></g><g id="차량번호로_찾기_" data-name="차량번호로 찾기"><path d="M97,51.45l-1.21,1.64a8,8,0,0,1-4-4.7,8.26,8.26,0,0,1-4.25,5l-1.19-1.68a7.77,7.77,0,0,0,4.34-7v-.92H86.88V42h3.77V39.45h2.17V42h3.71v1.74H92.8v.92A7.56,7.56,0,0,0,97,51.45Zm1.25-12.37h2.16v7h2.72v1.82h-2.72v8.85H98.25Z"/><path d="M104.33,40.18h8.07v5.07h-5.88v1.86a44.24,44.24,0,0,0,7.46-.53l.24,1.74a43.27,43.27,0,0,1-8.42.57h-1.45V43.61h5.92V41.89h-5.94Zm7.5,9.92c3.65,0,5.93,1.26,5.94,3.34s-2.29,3.26-5.94,3.26-6-1.19-6-3.26S108.13,50.11,111.83,50.1Zm0,5c2.44,0,3.79-.57,3.79-1.62s-1.35-1.64-3.79-1.64-3.85.57-3.84,1.64S109.36,55.07,111.83,55.06Zm8.25-11.66H117.6v1.91h2.48v1.82H117.6v2.64h-2.17V39.1h2.17v2.5h2.48Z"/><path d="M135.54,52.13h-2.17V45.62h-3.55v3.64h-8.26v-9h2.17v2.86h3.94V40.25h2.15v3.62h3.55V39.1h2.17Zm-7.87-4.59V44.79h-3.94v2.75Zm-3.77,3.3h2.21v3.79h9.82v1.76h-12Z"/><path d="M137.84,53.09h6.95V50.92c-3-.24-4.89-1.47-4.88-3.42,0-2.13,2.28-3.4,6-3.4s5.95,1.27,5.94,3.4c0,1.94-1.86,3.17-4.87,3.42v2.17h7v1.75H137.84Zm15.31-9.89H138.56V41.45h6.23V39.32h2.15v2.13h6.21Zm-7.28,6c2.35,0,3.71-.59,3.71-1.72s-1.36-1.69-3.71-1.7-3.74.59-3.73,1.7S143.47,49.21,145.87,49.22Z"/><path d="M171.06,54.69H154.93v-1.8h6.95V50h-5V44.24H167V42.05H156.8V40.29h12.35V46H159v2.28h10.55V50H164v2.87h7Z"/><path d="M187.1,47.19l-1,1.66a6.59,6.59,0,0,1-4.29-3.23,6.69,6.69,0,0,1-4.34,3.56l-1-1.72c2.78-.75,4.28-2.69,4.28-4.76v-.06h-3.69V40.92h3.69V39h2.18v1.92h3.68v1.72h-3.69v.06C182.9,44.59,184.33,46.45,187.1,47.19Zm-3.49,4.57h-4.69V50h11.82v1.74h-4.67c.42,1.46,2.39,2.84,5.41,3.26l-.78,1.66c-2.77-.39-4.86-1.57-5.87-3.17-1,1.59-3.1,2.74-5.83,3.13L178.2,55C181.23,54.59,183.19,53.26,183.61,51.76Zm4.71-12.68h2.16v4.1h2.46V45h-2.46V49.2h-2.16Z"/><path d="M200.91,42.68h-6.25V41h8.46c0,5.25-2.05,9.71-8.23,12.65l-1.13-1.73C198.39,49.68,200.52,46.69,200.91,42.68Zm7.48,14.06H206.2V39.08h2.19Z"/></g><g id="Tire_Search" data-name="Tire Search"><path class="cls-3" d="M86.17,24.5h6.5v.9H89.93v8.1h-1V25.4H86.17Z"/><path class="cls-3" d="M93.64,24.4h1v1.13h-1Zm0,2.6h1v6.5h-1Z"/><path class="cls-3" d="M96.36,27h1v.88a7.22,7.22,0,0,1,2.38-1v1a9.39,9.39,0,0,0-2.36.89V33.5h-1Z"/><path class="cls-3" d="M105.4,32.65l0,.77a22.39,22.39,0,0,1-2.53.21c-1.94,0-2.58-1.13-2.58-3.34,0-2.47,1.07-3.42,2.72-3.42s2.61.91,2.61,3l0,.74H101.3c0,1.39.43,2.12,1.7,2.12C104,32.77,105.4,32.65,105.4,32.65Zm-.73-2.78c0-1.61-.5-2.18-1.64-2.18s-1.73.61-1.74,2.18Z"/><path class="cls-3" d="M115,25.47s-1.81-.23-2.56-.23c-1.28,0-2,.46-2,1.47,0,1.17.62,1.37,2.19,1.72,1.8.4,2.59.84,2.59,2.42,0,2-1.09,2.77-2.87,2.77a23.32,23.32,0,0,1-2.85-.29l.1-.83s1.77.23,2.69.23c1.28,0,1.93-.56,1.93-1.8,0-1-.53-1.3-2-1.59-1.86-.4-2.8-.85-2.8-2.56s1.15-2.42,2.9-2.42a22.38,22.38,0,0,1,2.72.26Z"/><path class="cls-3" d="M121.48,32.65l0,.77a22.39,22.39,0,0,1-2.53.21c-1.94,0-2.58-1.13-2.58-3.34,0-2.47,1.07-3.42,2.72-3.42s2.61.91,2.61,3l0,.74h-4.29c0,1.39.43,2.12,1.7,2.12C120.06,32.77,121.48,32.65,121.48,32.65Zm-.73-2.78c0-1.61-.5-2.18-1.64-2.18s-1.73.61-1.74,2.18Z"/><path class="cls-3" d="M127.7,32.29c0,.38.34.52.76.57l0,.77a2,2,0,0,1-1.55-.52,6.64,6.64,0,0,1-2.34.52c-1.18,0-1.83-.68-1.83-2s.65-1.79,2-1.92l2-.2V29c0-.91-.39-1.23-1.17-1.23s-2.46.17-2.46.17l0-.74a15.54,15.54,0,0,1,2.55-.29c1.47,0,2.09.68,2.09,2.09Zm-2.9-1.85c-.79.08-1.1.46-1.1,1.17s.32,1.2,1,1.2a6.94,6.94,0,0,0,2-.4V30.26Z"/><path class="cls-3" d="M129.5,27h1v.88a7.22,7.22,0,0,1,2.38-1v1a9.56,9.56,0,0,0-2.37.89V33.5h-1Z"/><path class="cls-3" d="M137.93,27.06l0,.8s-1.05-.12-1.54-.12c-1.49,0-1.9.65-1.9,2.39,0,1.93.3,2.63,1.91,2.63.5,0,1.54-.12,1.54-.12l0,.81a17.46,17.46,0,0,1-1.81.18c-2.07,0-2.68-1-2.68-3.5,0-2.35.77-3.26,2.71-3.26A15.49,15.49,0,0,1,137.93,27.06Z"/><path class="cls-3" d="M139.27,33.5V24.17h1v3.19a5.53,5.53,0,0,1,2-.49c1.78,0,2.2.88,2.2,3.2V33.5h-1V30.09c0-1.71-.19-2.35-1.39-2.35a5.34,5.34,0,0,0-1.83.39V33.5Z"/></g></g><g id="s1_copy_2" data-name="s1 copy 2"><g id="Vector_Smart_Object_Image-2" data-name="Vector Smart Object Image"><path class="cls-1" d="M23.79,28.39V32a2.1,2.1,0,0,1-.67,1.66,2.71,2.71,0,0,1-1.84.59,2.7,2.7,0,0,1-1.85-.59A2.13,2.13,0,0,1,18.77,32V28.39a2.13,2.13,0,0,1,.66-1.66,2.7,2.7,0,0,1,1.85-.59,2.71,2.71,0,0,1,1.84.59A2.1,2.1,0,0,1,23.79,28.39ZM22.4,31.94V28.5a1.08,1.08,0,0,0-.29-.82,1.43,1.43,0,0,0-1.67,0,1.11,1.11,0,0,0-.28.82v3.44a1.07,1.07,0,0,0,.28.81,1.47,1.47,0,0,0,1.67,0A1,1,0,0,0,22.4,31.94Z"/><path class="cls-1" d="M30,28.39V32a2.13,2.13,0,0,1-.67,1.66,2.71,2.71,0,0,1-1.84.59,2.69,2.69,0,0,1-1.85-.59A2.13,2.13,0,0,1,25,32V28.39a2.13,2.13,0,0,1,.66-1.66,2.69,2.69,0,0,1,1.85-.59,2.71,2.71,0,0,1,1.84.59A2.13,2.13,0,0,1,30,28.39Zm-1.39,3.55V28.5a1.08,1.08,0,0,0-.29-.82,1.17,1.17,0,0,0-.83-.27,1.15,1.15,0,0,0-.84.27,1.07,1.07,0,0,0-.28.82v3.44a1,1,0,0,0,.28.81,1.14,1.14,0,0,0,.84.26,1.17,1.17,0,0,0,.83-.26A1,1,0,0,0,28.61,31.94Z"/><path class="cls-1" d="M35.05,33.72H31.14V26.58h3.52v1.07H32.19v1.82h2.47v1.06H32.19v2.14h2.86Zm1.85-3.29v3.63h-1v-7.6h1v2.86h.89v1.11Z"/><path class="cls-1" d="M43.43,28.39V32a2.1,2.1,0,0,1-.67,1.66,3.18,3.18,0,0,1-3.69,0A2.12,2.12,0,0,1,38.42,32V28.39a2.12,2.12,0,0,1,.65-1.66,3.18,3.18,0,0,1,3.69,0A2.1,2.1,0,0,1,43.43,28.39ZM42,31.94V28.5a1,1,0,0,0-.29-.82,1.15,1.15,0,0,0-.83-.27,1.18,1.18,0,0,0-.84.27,1.11,1.11,0,0,0-.28.82v3.44a1.07,1.07,0,0,0,.28.81,1.18,1.18,0,0,0,.84.26,1.15,1.15,0,0,0,.83-.26A1,1,0,0,0,42,31.94Z"/><path class="cls-1" d="M49.64,28.39V32A2.13,2.13,0,0,1,49,33.69a3.18,3.18,0,0,1-3.69,0A2.13,2.13,0,0,1,44.62,32V28.39a2.13,2.13,0,0,1,.66-1.66,3.18,3.18,0,0,1,3.69,0A2.13,2.13,0,0,1,49.64,28.39Zm-1.39,3.55V28.5a1.08,1.08,0,0,0-.29-.82,1.17,1.17,0,0,0-.83-.27,1.15,1.15,0,0,0-.84.27,1.07,1.07,0,0,0-.28.82v3.44a1,1,0,0,0,.28.81,1.14,1.14,0,0,0,.84.26,1.17,1.17,0,0,0,.83-.26A1,1,0,0,0,48.25,31.94Z"/><path class="cls-1" d="M55.84,28.39V32a2.13,2.13,0,0,1-.66,1.66,3.18,3.18,0,0,1-3.69,0A2.13,2.13,0,0,1,50.83,32V28.39a2.13,2.13,0,0,1,.66-1.66,3.18,3.18,0,0,1,3.69,0A2.13,2.13,0,0,1,55.84,28.39Zm-1.39,3.55V28.5a1.07,1.07,0,0,0-.28-.82,1.17,1.17,0,0,0-.83-.27,1.15,1.15,0,0,0-.84.27,1.07,1.07,0,0,0-.28.82v3.44a1,1,0,0,0,.28.81,1.14,1.14,0,0,0,.84.26,1.17,1.17,0,0,0,.83-.26A1,1,0,0,0,54.45,31.94Z"/><path class="cls-1" d="M62.05,28.39V32a2.1,2.1,0,0,1-.67,1.66,3.18,3.18,0,0,1-3.69,0A2.12,2.12,0,0,1,57,32V28.39a2.12,2.12,0,0,1,.65-1.66,3.18,3.18,0,0,1,3.69,0A2.1,2.1,0,0,1,62.05,28.39Zm-1.39,3.55V28.5a1,1,0,0,0-.29-.82,1.15,1.15,0,0,0-.83-.27,1.18,1.18,0,0,0-.84.27,1.11,1.11,0,0,0-.27.82v3.44a1.07,1.07,0,0,0,.27.81,1.18,1.18,0,0,0,.84.26,1.15,1.15,0,0,0,.83-.26A1,1,0,0,0,60.66,31.94Z"/></g><polyline class="cls-4" points="240 47.67 247.76 39.9 240.35 32.49"/></g></g></g></svg>