<svg xmlns="http://www.w3.org/2000/svg" viewBox="0 0 269 70"><defs><style>.cls-1{fill:#fff;}.cls-2{fill:#803a9d;}.cls-3{fill:#6d6e71;}.cls-4,.cls-5{fill:none;stroke-miterlimit:10;}.cls-4{stroke:#fff;}.cls-5{stroke:#803a9d;}</style></defs><g id="Layer_2" data-name="Layer 2"><g id="_-2_M_over" data-name="-2_M_over"><g id="s1_copy_3" data-name="s1 copy 3"><g id="Rectangle_13" data-name="Rectangle 13"><rect class="cls-1" y="10" width="269" height="60"/></g><g id="Rectangle_16" data-name="Rectangle 16"><rect class="cls-2" x="10" width="60" height="60"/></g><g id="사이즈로_찾기_" data-name="사이즈로 찾기"><path d="M97.19,51l-1.33,1.73a8.53,8.53,0,0,1-4-5.07,8.92,8.92,0,0,1-4.24,5.41l-1.33-1.74c2.85-1.35,4.47-4.73,4.48-8V40.51h2.16v2.81C92.88,46.47,94.46,49.66,97.19,51Zm1.06-11.9h2.16V46h2.72v1.85h-2.72v8.89H98.25Z"/><path d="M108.85,40.37c2.64,0,4.6,2.42,4.61,6.23s-2,6.25-4.61,6.25-4.62-2.41-4.61-6.25S106.17,40.37,108.85,40.37Zm0,10.53c1.48,0,2.5-1.58,2.5-4.3s-1-4.28-2.5-4.28-2.52,1.59-2.52,4.28S107.35,50.89,108.85,50.9Zm9.51,5.86h-2.19V39.08h2.19Z"/><path d="M136.89,54.53H120.76v-1.8h16.13ZM127.65,42.7v-.28H122.1V40.68h13.4v1.74h-5.56v.28c0,2.58,2.63,4.94,6.3,5.5l-.86,1.72a9.07,9.07,0,0,1-6.57-4.33A9,9,0,0,1,122.32,50l-.86-1.76C125,47.71,127.66,45.28,127.65,42.7Z"/><path d="M154,54.69H137.84v-1.8h6.95V50h-5V44.24h10.15V42.05H139.72V40.29h12.34V46H141.92v2.28h10.55V50h-5.53v2.87h7Z"/><path d="M170,47.19l-1,1.66a6.57,6.57,0,0,1-4.28-3.23,6.73,6.73,0,0,1-4.35,3.56l-1-1.72c2.78-.75,4.27-2.69,4.27-4.76v-.06H160V40.92h3.69V39h2.19v1.92h3.67v1.72h-3.69v.06C165.81,44.59,167.25,46.45,170,47.19Zm-3.5,4.57h-4.68V50h11.81v1.74H169c.42,1.46,2.4,2.84,5.41,3.26l-.78,1.66c-2.76-.39-4.85-1.57-5.87-3.17-1,1.59-3.09,2.74-5.83,3.13l-.8-1.64C164.14,54.59,166.1,53.26,166.52,51.76Zm4.71-12.68h2.17v4.1h2.46V45H173.4V49.2h-2.17Z"/><path d="M183.82,42.68h-6.25V41H186c0,5.25-2,9.71-8.22,12.65l-1.14-1.73C181.3,49.68,183.43,46.69,183.82,42.68Zm7.48,14.06h-2.18V39.08h2.18Z"/></g><g id="Tire_Search" data-name="Tire Search"><path class="cls-3" d="M86.17,24.5h6.5v.9H89.93v8.1h-1V25.4H86.17Z"/><path class="cls-3" d="M93.64,24.4h1v1.13h-1Zm0,2.6h1v6.5h-1Z"/><path class="cls-3" d="M96.36,27h1v.88a7.22,7.22,0,0,1,2.38-1v1a9.39,9.39,0,0,0-2.36.89V33.5h-1Z"/><path class="cls-3" d="M105.4,32.65l0,.77a22.39,22.39,0,0,1-2.53.21c-1.94,0-2.58-1.13-2.58-3.34,0-2.47,1.07-3.42,2.72-3.42s2.61.91,2.61,3l0,.74H101.3c0,1.39.43,2.12,1.7,2.12C104,32.77,105.4,32.65,105.4,32.65Zm-.73-2.78c0-1.61-.5-2.18-1.64-2.18s-1.73.61-1.74,2.18Z"/><path class="cls-3" d="M115,25.47s-1.81-.23-2.56-.23c-1.28,0-2,.46-2,1.47,0,1.17.62,1.37,2.19,1.72,1.8.4,2.59.84,2.59,2.42,0,2-1.09,2.77-2.87,2.77a23.32,23.32,0,0,1-2.85-.29l.1-.83s1.77.23,2.69.23c1.28,0,1.93-.56,1.93-1.8,0-1-.53-1.3-2-1.59-1.86-.4-2.8-.85-2.8-2.56s1.15-2.42,2.9-2.42a22.38,22.38,0,0,1,2.72.26Z"/><path class="cls-3" d="M121.48,32.65l0,.77a22.39,22.39,0,0,1-2.53.21c-1.94,0-2.58-1.13-2.58-3.34,0-2.47,1.07-3.42,2.72-3.42s2.61.91,2.61,3l0,.74h-4.29c0,1.39.43,2.12,1.7,2.12C120.06,32.77,121.48,32.65,121.48,32.65Zm-.73-2.78c0-1.61-.5-2.18-1.64-2.18s-1.73.61-1.74,2.18Z"/><path class="cls-3" d="M127.7,32.29c0,.38.34.52.76.57l0,.77a2,2,0,0,1-1.55-.52,6.64,6.64,0,0,1-2.34.52c-1.18,0-1.83-.68-1.83-2s.65-1.79,2-1.92l2-.2V29c0-.91-.39-1.23-1.17-1.23s-2.46.17-2.46.17l0-.74a15.54,15.54,0,0,1,2.55-.29c1.47,0,2.09.68,2.09,2.09Zm-2.9-1.85c-.79.08-1.1.46-1.1,1.17s.32,1.2,1,1.2a6.94,6.94,0,0,0,2-.4V30.26Z"/><path class="cls-3" d="M129.5,27h1v.88a7.22,7.22,0,0,1,2.38-1v1a9.56,9.56,0,0,0-2.37.89V33.5h-1Z"/><path class="cls-3" d="M137.93,27.06l0,.8s-1-.12-1.54-.12c-1.49,0-1.9.65-1.9,2.39,0,1.93.3,2.63,1.91,2.63.5,0,1.54-.12,1.54-.12l0,.81a17.46,17.46,0,0,1-1.81.18c-2.07,0-2.68-1-2.68-3.5,0-2.35.77-3.26,2.71-3.26A15.49,15.49,0,0,1,137.93,27.06Z"/><path class="cls-3" d="M139.27,33.5V24.17h1v3.19a5.53,5.53,0,0,1,2-.49c1.78,0,2.2.88,2.2,3.2V33.5h-1V30.09c0-1.71-.19-2.35-1.39-2.35a5.34,5.34,0,0,0-1.83.39V33.5Z"/></g><circle class="cls-4" cx="45.28" cy="29.83" r="14.72"/><circle class="cls-4" cx="45.28" cy="29.83" r="1.9"/><path class="cls-4" d="M46.23,39.33l.4-4.07a1.91,1.91,0,0,1,2.68-1.54L53,35.4"/><path class="cls-4" d="M37.53,24.26l3.72,1.68a1.9,1.9,0,0,0,2.67-1.54l.41-4.07"/><path class="cls-4" d="M37.53,35.4l3.72-1.68a1.9,1.9,0,0,1,2.67,1.54l.41,4.07"/><path class="cls-4" d="M54,25.9l-3.32,2.39a1.9,1.9,0,0,0,0,3.08L54,33.76"/><path class="cls-4" d="M53,24.26l-3.72,1.68a1.91,1.91,0,0,1-2.68-1.54l-.4-4.07"/><path class="cls-4" d="M36.58,33.76l3.31-2.39a1.89,1.89,0,0,0,0-3.08L36.58,25.9"/><path class="cls-4" d="M46.28,20.87a9,9,0,0,1,6.25,3.61"/><path class="cls-4" d="M38,24.48a9,9,0,0,1,6.25-3.61"/><path class="cls-4" d="M53.54,33.44a9,9,0,0,0,0-7.22"/><path class="cls-4" d="M52.53,35.18a9,9,0,0,1-6.25,3.62"/><path class="cls-4" d="M44.27,38.8A9,9,0,0,1,38,35.18"/><path class="cls-4" d="M37,26.22a9,9,0,0,0,0,7.22"/><rect class="cls-2" x="28.22" y="16.61" width="6.79" height="26.6"/><rect class="cls-4" x="23" y="15.17" width="7.83" height="29.46"/><line class="cls-4" x1="26.07" y1="18.86" x2="30.37" y2="18.86"/><line class="cls-4" x1="27.3" y1="22.54" x2="30.37" y2="22.54"/><line class="cls-4" x1="27.3" y1="26.22" x2="30.37" y2="26.22"/><line class="cls-4" x1="26.07" y1="29.91" x2="30.37" y2="29.91"/><line class="cls-4" x1="27.3" y1="33.59" x2="30.37" y2="33.59"/><line class="cls-4" x1="27.3" y1="37.27" x2="30.37" y2="37.27"/><line class="cls-4" x1="26.07" y1="40.96" x2="30.37" y2="40.96"/><polyline class="cls-5" points="240.62 47.59 248.38 39.83 240.97 32.41"/></g></g></g></svg>