<svg xmlns="http://www.w3.org/2000/svg" viewBox="0 0 269 70"><defs><style>.cls-1{fill:#fff;}.cls-2{fill:#803a9d;}.cls-3,.cls-5{fill:none;}.cls-3{stroke:#fff;stroke-linecap:round;stroke-linejoin:round;}.cls-4{fill:#6d6e71;}.cls-5{stroke:#803a9d;stroke-miterlimit:10;}</style></defs><g id="Layer_2" data-name="Layer 2"><g id="_-2_M_over" data-name="-2_M_over"><g id="s1_copy_2" data-name="s1 copy 2"><g id="Rectangle_13" data-name="Rectangle 13"><rect class="cls-1" y="10" width="269" height="60"/></g><g id="Rectangle_16" data-name="Rectangle 16"><rect class="cls-2" x="10" width="60" height="60"/></g><g id="Vector_Smart_Object_Image" data-name="Vector Smart Object Image"><g id="_13" data-name="13"><circle class="cls-3" cx="52.5" cy="34.89" r="4.12"/><circle class="cls-3" cx="24.7" cy="34.89" r="4.12"/><path class="cls-3" d="M59.71,35.91h1l2.06-4.11-1-3.09,2.06-3.09H55.59A16.82,16.82,0,0,0,44.26,21.5c-7.21,0-14.41,4.12-14.41,4.12s-11.33-1-12.36,5.15v4.12l1,1h2.06"/><line class="cls-3" x1="48.38" y1="35.91" x2="31.9" y2="35.91"/><polyline class="cls-3" points="50.44 25.62 46.32 28.71 34.99 28.71 29.84 25.62"/><line class="cls-3" x1="43.23" y1="24.59" x2="41.17" y2="28.71"/></g></g><g id="차종으로_찾기_" data-name="차종으로 찾기"><path d="M97,51.45l-1.21,1.64a8,8,0,0,1-4-4.7,8.26,8.26,0,0,1-4.25,5l-1.19-1.68a7.77,7.77,0,0,0,4.34-7v-.92H86.88V42h3.77V39.45h2.17V42h3.71v1.74H92.8v.92A7.56,7.56,0,0,0,97,51.45Zm1.25-12.37h2.16v7h2.72v1.82h-2.72v8.85H98.25Z"/><path d="M112.77,47.64h7v1.75H103.67V47.64h7V45.39h2.15Zm-2.6-6h-5V39.86h13.18V41.6h-5.09c.36,1.44,2.48,2.73,5.77,3l-.78,1.7C115,46,112.66,44.77,111.7,43c-1,1.78-3.3,3-6.51,3.36l-.76-1.7C107.69,44.33,109.81,43.05,110.17,41.6Zm1.53,8.93c3.83,0,6.1,1.1,6.11,3.08s-2.28,3.11-6.11,3.11-6.15-1.1-6.15-3.11S107.84,50.53,111.7,50.53Zm0,4.55c2.55,0,3.92-.5,3.94-1.47s-1.39-1.41-3.94-1.42-4,.49-4,1.42S109.1,55.08,111.7,55.08Z"/><path d="M120.76,52.73h16.13v1.78H120.76Zm14.61-7.67c0,3-2.87,5-6.59,5s-6.55-2-6.54-5,2.84-5,6.54-5S135.38,42.06,135.37,45.06Zm-6.59,3.24c2.58,0,4.46-1.24,4.46-3.24s-1.88-3.24-4.46-3.22-4.46,1.27-4.45,3.22S126.22,48.29,128.78,48.3Z"/><path d="M154,54.69H137.84v-1.8h6.95V50h-5V44.24h10.15V42.05H139.72V40.29h12.34V46H141.92v2.28h10.55V50h-5.53v2.87h7Z"/><path d="M170,47.19l-1,1.66a6.57,6.57,0,0,1-4.28-3.23,6.73,6.73,0,0,1-4.35,3.56l-1-1.72c2.78-.75,4.27-2.69,4.27-4.76v-.06H160V40.92h3.69V39h2.19v1.92h3.67v1.72h-3.69v.06C165.81,44.59,167.25,46.45,170,47.19Zm-3.5,4.57h-4.68V50h11.81v1.74H169c.42,1.46,2.4,2.84,5.41,3.26l-.78,1.66c-2.76-.39-4.85-1.57-5.87-3.17-1,1.59-3.09,2.74-5.83,3.13l-.8-1.64C164.14,54.59,166.1,53.26,166.52,51.76Zm4.71-12.68h2.17v4.1h2.46V45H173.4V49.2h-2.17Z"/><path d="M183.82,42.68h-6.25V41H186c0,5.25-2,9.71-8.22,12.65l-1.14-1.73C181.3,49.68,183.43,46.69,183.82,42.68Zm7.48,14.06h-2.18V39.08h2.18Z"/></g><g id="Tire_Search" data-name="Tire Search"><path class="cls-4" d="M86.17,24.5h6.5v.9H89.93v8.1h-1V25.4H86.17Z"/><path class="cls-4" d="M93.64,24.4h1v1.13h-1Zm0,2.6h1v6.5h-1Z"/><path class="cls-4" d="M96.36,27h1v.88a7.22,7.22,0,0,1,2.38-1v1a9.39,9.39,0,0,0-2.36.89V33.5h-1Z"/><path class="cls-4" d="M105.4,32.65l0,.77a22.39,22.39,0,0,1-2.53.21c-1.94,0-2.58-1.13-2.58-3.34,0-2.47,1.07-3.42,2.72-3.42s2.61.91,2.61,3l0,.74H101.3c0,1.39.43,2.12,1.7,2.12C104,32.77,105.4,32.65,105.4,32.65Zm-.73-2.78c0-1.61-.5-2.18-1.64-2.18s-1.73.61-1.74,2.18Z"/><path class="cls-4" d="M115,25.47s-1.81-.23-2.56-.23c-1.28,0-2,.46-2,1.47,0,1.17.62,1.37,2.19,1.72,1.8.4,2.59.84,2.59,2.42,0,2-1.09,2.77-2.87,2.77a23.32,23.32,0,0,1-2.85-.29l.1-.83s1.77.23,2.69.23c1.28,0,1.93-.56,1.93-1.8,0-1-.53-1.3-2-1.59-1.86-.4-2.8-.85-2.8-2.56s1.15-2.42,2.9-2.42a22.38,22.38,0,0,1,2.72.26Z"/><path class="cls-4" d="M121.48,32.65l0,.77a22.39,22.39,0,0,1-2.53.21c-1.94,0-2.58-1.13-2.58-3.34,0-2.47,1.07-3.42,2.72-3.42s2.61.91,2.61,3l0,.74h-4.29c0,1.39.43,2.12,1.7,2.12C120.06,32.77,121.48,32.65,121.48,32.65Zm-.73-2.78c0-1.61-.5-2.18-1.64-2.18s-1.73.61-1.74,2.18Z"/><path class="cls-4" d="M127.7,32.29c0,.38.34.52.76.57l0,.77a2,2,0,0,1-1.55-.52,6.64,6.64,0,0,1-2.34.52c-1.18,0-1.83-.68-1.83-2s.65-1.79,2-1.92l2-.2V29c0-.91-.39-1.23-1.17-1.23s-2.46.17-2.46.17l0-.74a15.54,15.54,0,0,1,2.55-.29c1.47,0,2.09.68,2.09,2.09Zm-2.9-1.85c-.79.08-1.1.46-1.1,1.17s.32,1.2,1,1.2a6.94,6.94,0,0,0,2-.4V30.26Z"/><path class="cls-4" d="M129.5,27h1v.88a7.22,7.22,0,0,1,2.38-1v1a9.56,9.56,0,0,0-2.37.89V33.5h-1Z"/><path class="cls-4" d="M137.93,27.06l0,.8s-1-.12-1.54-.12c-1.49,0-1.9.65-1.9,2.39,0,1.93.3,2.63,1.91,2.63.5,0,1.54-.12,1.54-.12l0,.81a17.46,17.46,0,0,1-1.81.18c-2.07,0-2.68-1-2.68-3.5,0-2.35.77-3.26,2.71-3.26A15.49,15.49,0,0,1,137.93,27.06Z"/><path class="cls-4" d="M139.27,33.5V24.17h1v3.19a5.53,5.53,0,0,1,2-.49c1.78,0,2.2.88,2.2,3.2V33.5h-1V30.09c0-1.71-.19-2.35-1.39-2.35a5.34,5.34,0,0,0-1.83.39V33.5Z"/></g><polyline class="cls-5" points="240.62 47.45 248.38 39.69 240.97 32.27"/></g></g></g></svg>